<?xml version="1.0" standalone="no"?>
<!DOCTYPE svg PUBLIC "-//W3C//DTD SVG 20010904//EN"
 "http://www.w3.org/TR/2001/REC-SVG-20010904/DTD/svg10.dtd">
<svg version="1.0" xmlns="http://www.w3.org/2000/svg"
 width="1536.000000pt" height="2730.000000pt" viewBox="0 0 1536.000000 2730.000000"
 preserveAspectRatio="xMidYMid meet">

<g transform="translate(0.000000,2730.000000) scale(0.100000,-0.100000)"
fill="#000000" stroke="none">
<path d="M7828 21405 c-190 -31 -418 -101 -587 -181 -52 -24 -169 -87 -260
-138 l-166 -94 -55 14 c-30 8 -64 14 -75 13 -11 0 15 -9 57 -20 l78 -20 142
81 c438 249 757 350 1111 350 165 0 308 -23 502 -81 l140 -41 260 -8 c207 -7
276 -13 340 -29 200 -50 346 -117 675 -311 96 -57 243 -143 327 -192 83 -49
157 -96 165 -105 17 -21 -13 -5 -342 175 -270 149 -407 221 -380 202 8 -6 101
-58 205 -117 710 -395 949 -557 1221 -828 277 -276 402 -466 500 -763 25 -75
83 -225 129 -332 192 -448 293 -758 339 -1031 34 -199 38 -508 10 -771 -10
-99 10 -86 31 20 23 115 32 459 16 620 -14 136 -48 299 -98 462 -56 185 -212
595 -303 795 -17 39 -56 140 -85 225 -29 85 -67 184 -83 221 -93 205 -298 467
-562 714 -219 204 -431 352 -810 565 -52 29 -179 102 -282 162 -215 125 -371
202 -511 252 -161 58 -226 68 -502 76 -244 6 -253 7 -360 39 -237 71 -305 82
-510 87 -133 2 -216 -1 -277 -11z"/>
<path d="M7860 21329 c-92 -12 -198 -36 -325 -74 -115 -35 -289 -104 -281
-112 2 -2 17 2 33 10 15 8 39 18 53 21 14 4 -31 -22 -100 -56 -69 -35 -184
-98 -256 -141 -126 -74 -159 -87 -179 -68 -6 5 -50 17 -100 27 -130 27 -356
25 -484 -4 -101 -23 -135 -39 -61 -28 43 7 41 6 -31 -27 -85 -38 -181 -99
-384 -247 -180 -131 -275 -179 -355 -178 -14 0 -47 -5 -73 -11 -26 -6 -123
-16 -215 -21 -92 -6 -192 -17 -222 -25 l-55 -14 55 3 55 4 -59 -20 c-33 -12
-93 -44 -135 -72 -95 -65 -184 -179 -272 -349 -34 -67 -76 -142 -93 -167 -17
-25 -114 -128 -216 -230 -149 -149 -194 -201 -232 -266 -26 -44 -71 -103 -100
-130 -257 -244 -369 -464 -385 -755 -8 -150 9 -278 58 -449 54 -189 56 -204
23 -340 -21 -89 -28 -148 -32 -265 -4 -142 1 -197 34 -345 4 -18 -1 -15 -16
13 -14 26 -26 37 -36 33 -19 -7 -31 23 -56 144 -27 128 -21 290 17 445 40 164
37 231 -13 392 -63 202 -76 278 -69 413 13 268 106 466 332 710 58 63 136 158
172 210 46 66 123 152 253 280 l187 185 77 151 c43 82 100 180 128 217 61 82
189 197 258 232 73 37 198 63 340 70 166 8 244 21 361 60 109 37 165 72 327
204 61 50 141 110 179 134 123 80 284 125 488 137 l130 8 -140 -3 c-287 -7
-429 -69 -837 -368 -170 -124 -252 -150 -506 -161 -286 -13 -463 -88 -611
-260 -64 -73 -93 -121 -171 -276 -71 -141 -75 -147 -174 -240 -188 -178 -233
-225 -321 -345 -49 -66 -133 -167 -187 -224 -122 -128 -176 -202 -233 -322
-89 -189 -126 -393 -106 -585 11 -104 34 -199 56 -224 30 -35 72 -185 55 -195
-6 -3 -10 -34 -10 -68 0 -34 -12 -116 -26 -182 -40 -181 -36 -428 7 -543 8
-21 12 -24 20 -12 12 19 49 -22 134 -147 76 -112 230 -266 315 -316 98 -57
210 -96 323 -113 56 -9 127 -23 157 -32 52 -16 59 -23 127 -112 97 -126 136
-230 88 -230 -42 0 14 -53 77 -72 50 -15 59 -29 107 -169 40 -119 63 -174 106
-249 47 -83 41 -107 -96 -374 -154 -305 -180 -369 -182 -455 -1 -36 2 -84 6
-106 l7 -40 -22 36 c-12 20 -31 40 -42 45 -30 13 -43 88 -28 172 8 50 43 130
151 351 77 157 141 295 143 306 5 36 -35 25 -52 -15 -8 -19 -76 -159 -151
-311 -146 -296 -168 -363 -156 -471 8 -62 13 -71 36 -56 15 9 31 -3 112 -86
107 -111 119 -130 154 -245 57 -193 65 -281 40 -436 -10 -57 -13 -118 -10
-165 6 -69 5 -73 -9 -56 -9 11 -16 26 -16 33 0 7 -11 18 -24 23 -42 15 -43 65
-12 310 1 8 9 14 19 12 14 -2 17 5 17 36 0 43 -28 215 -40 247 -7 19 -9 18
-19 -9 -9 -21 -9 -50 -1 -106 7 -53 7 -86 0 -104 -5 -15 -10 -44 -10 -64 0
-20 -9 -73 -20 -117 -28 -115 -26 -215 4 -215 23 0 136 -128 161 -182 18 -39
26 -79 31 -155 4 -57 4 -103 1 -103 -15 0 -37 62 -49 138 l-12 81 -23 -21
c-19 -17 -23 -32 -23 -77 0 -66 8 -101 23 -101 5 0 54 -42 107 -94 106 -103
151 -130 282 -170 79 -24 91 -31 135 -80 26 -30 91 -123 143 -208 125 -200
188 -289 263 -366 146 -150 375 -260 637 -307 207 -37 564 -30 803 15 56 11
113 20 126 20 20 0 21 -2 11 -15 -15 -18 1 -20 18 -3 9 9 12 7 12 -11 0 -24 7
-20 -325 -174 -66 -31 -181 -79 -255 -108 -149 -58 -188 -63 -296 -35 -32 8
-185 41 -339 72 -256 53 -292 58 -415 58 l-135 1 -106 -51 c-194 -94 -529
-304 -679 -427 -111 -90 -131 -99 -285 -131 -139 -29 -204 -57 -450 -190 -280
-153 -476 -226 -754 -282 -202 -41 -251 -58 -319 -108 -56 -40 -76 -66 -147
-181 -86 -139 -162 -204 -313 -269 -178 -77 -206 -99 -297 -237 -63 -96 -66
-99 -141 -134 -109 -52 -156 -100 -216 -220 -62 -124 -75 -139 -196 -235 -189
-149 -282 -323 -299 -560 -10 -148 22 -426 63 -532 7 -21 26 -91 40 -155 36
-161 108 -408 151 -517 50 -127 177 -379 263 -521 167 -278 394 -541 626 -727
74 -60 288 -205 342 -232 60 -31 57 -10 -4 24 -192 109 -376 250 -534 409
-138 139 -223 244 -335 411 -307 461 -465 918 -497 1438 -17 281 -15 464 6
557 38 165 89 242 243 362 119 93 163 147 207 251 45 106 67 130 161 173 103
46 120 61 192 171 76 117 110 144 251 203 176 74 263 148 368 311 105 165 145
191 359 235 337 70 578 162 924 353 64 35 150 76 191 90 79 27 250 58 250 45
0 -12 -113 -143 -254 -294 -267 -287 -437 -525 -576 -810 -93 -188 -151 -344
-190 -505 -12 -52 -28 -102 -35 -110 -25 -29 -36 -232 -29 -536 7 -289 6 -293
-15 -336 -20 -38 -62 -88 -75 -88 -2 0 -16 33 -31 73 -53 139 -115 287 -216
514 -178 401 -210 530 -212 871 -2 206 0 223 26 332 42 173 41 166 23 173 -8
3 -22 0 -29 -7 -16 -17 -71 -239 -87 -351 -6 -44 -13 -96 -17 -115 l-7 -35 -6
40 c-5 28 -7 12 -8 -55 -1 -105 10 -189 25 -199 6 -3 24 -60 40 -126 41 -162
82 -269 233 -599 132 -290 182 -415 221 -549 l23 -78 -28 -77 c-16 -42 -60
-169 -98 -282 -38 -113 -75 -218 -83 -235 -26 -52 -176 -697 -175 -748 1 -37
25 42 55 181 55 253 73 302 109 289 11 -4 16 -19 16 -46 0 -58 15 -91 42 -91
43 0 68 12 68 31 0 11 3 19 8 19 4 0 13 10 21 22 9 14 -2 9 -30 -15 -48 -42
-65 -43 -61 -4 1 14 -4 42 -12 62 -11 26 -21 35 -39 35 -13 0 -26 2 -29 5 -3
3 19 85 49 183 29 97 58 193 63 212 5 20 16 44 24 55 14 20 15 19 44 -9 47
-44 100 -45 191 -2 41 19 80 32 87 29 19 -7 8 -47 -50 -175 -30 -65 -52 -118
-50 -118 5 0 67 125 95 193 18 45 25 54 30 40 6 -15 8 -14 18 11 15 38 11 66
-11 80 -14 8 -34 2 -100 -32 -46 -23 -93 -42 -105 -42 -37 0 -72 21 -85 51
-10 23 -15 26 -27 16 -11 -10 -13 -8 -8 8 16 51 41 146 54 204 18 83 33 110
31 58 -1 -20 2 -40 5 -43 3 -4 26 -1 51 5 56 14 180 14 266 1 75 -12 480 -122
480 -131 0 -3 -33 -28 -72 -55 -162 -110 -310 -239 -395 -346 l-54 -68 -63 0
c-56 0 -65 -3 -91 -30 -33 -34 -23 -41 11 -9 16 15 42 23 87 28 58 6 68 10 92
41 54 67 222 226 310 293 50 37 125 85 168 105 51 25 76 42 75 52 -4 17 -9 19
-273 89 -310 83 -397 92 -533 59 -23 -6 -46 -8 -49 -4 -21 20 103 281 162 342
71 73 224 114 426 114 134 0 185 -6 444 -55 583 -110 733 -122 933 -74 46 12
86 18 89 15 15 -15 -86 -186 -179 -302 -163 -205 -256 -251 -542 -269 -204
-13 -310 -54 -526 -208 -97 -70 -327 -274 -318 -283 9 -8 255 -34 333 -35 121
-1 141 -8 137 -43 -2 -15 1 -25 6 -22 12 7 21 62 12 76 -3 5 -67 12 -146 15
-76 3 -179 11 -228 17 l-88 11 78 74 c85 78 164 140 164 126 0 -5 -41 -46 -90
-91 -50 -46 -90 -87 -90 -92 0 -27 40 -16 114 32 152 97 296 147 527 183 86
13 182 34 213 45 74 28 151 88 261 202 198 205 350 399 399 508 44 98 24 115
-92 79 -70 -22 -95 -24 -262 -24 -200 1 -198 1 -665 90 -296 57 -435 71 -558
56 -98 -11 -207 -37 -271 -65 -22 -9 -41 -14 -44 -11 -8 7 24 73 122 255 136
252 190 366 181 387 -6 16 -10 14 -33 -14 -15 -17 -69 -109 -121 -205 -109
-200 -173 -308 -183 -308 -26 0 -15 373 18 590 33 222 99 429 209 655 146 298
287 491 641 872 62 66 150 172 197 235 127 172 131 175 454 372 320 195 412
228 569 207 43 -6 174 -34 289 -61 242 -56 363 -80 411 -80 18 0 35 -4 38 -9
3 -5 -94 -67 -217 -138 -368 -215 -710 -450 -961 -660 -141 -119 -437 -414
-552 -551 -123 -148 -248 -311 -242 -318 3 -2 54 53 114 123 137 162 482 508
639 643 316 270 719 538 1262 839 126 70 351 173 366 168 14 -4 -33 -40 -323
-243 -943 -663 -946 -665 -1401 -1160 -357 -389 -729 -754 -924 -906 -30 -23
-52 -44 -50 -47 13 -13 370 292 652 557 84 78 232 229 330 335 428 464 540
559 1198 1012 127 87 264 183 305 214 251 186 660 440 660 410 0 -6 -33 -52
-73 -103 -272 -341 -409 -584 -447 -797 -19 -105 -20 -110 -30 -104 -16 10
-12 -116 3 -134 8 -9 19 -42 26 -74 38 -177 195 -354 386 -434 120 -51 201
-65 400 -70 146 -4 217 -1 305 11 305 45 619 138 1042 310 296 120 460 193
913 405 403 190 1401 733 1843 1004 68 42 129 74 136 71 7 -3 23 -18 34 -34
12 -16 79 -74 150 -128 142 -110 191 -161 313 -319 95 -125 212 -244 319 -328
84 -65 140 -115 140 -126 0 -3 -69 -14 -152 -24 -586 -66 -1029 -241 -1578
-621 -162 -112 -270 -199 -270 -219 0 -24 20 -28 48 -9 15 9 90 61 167 114
503 349 938 541 1423 627 143 25 178 28 387 27 254 0 353 -14 516 -74 92 -33
286 -133 404 -207 44 -28 114 -70 155 -94 102 -60 118 -91 130 -246 13 -162
12 -1580 -1 -1668 -5 -38 -14 -131 -19 -205 -10 -153 -36 -315 -82 -505 -147
-609 -482 -1149 -943 -1519 -357 -286 -700 -437 -1145 -502 -96 -14 -224 -18
-789 -21 -448 -3 -670 -8 -663 -15 6 -6 246 -8 693 -5 643 4 692 5 822 26 322
51 595 158 864 337 183 122 283 204 434 354 156 155 226 241 350 427 231 348
344 630 470 1168 23 99 48 189 55 200 13 21 38 146 50 250 3 33 10 67 15 76 4
8 11 71 14 140 4 68 9 153 11 189 2 36 5 97 7 135 1 39 5 75 9 80 3 6 7 53 7
105 1 52 3 104 6 115 2 11 4 216 5 455 2 263 6 416 10 387 10 -59 17 -68 26
-33 16 65 -36 321 -97 473 -90 228 -287 460 -524 618 -109 72 -425 249 -680
380 -238 123 -281 149 -415 249 -95 72 -205 143 -290 186 -25 13 -64 39 -87
58 -48 38 -55 32 -20 -18 15 -22 60 -54 137 -97 63 -35 165 -102 225 -147 144
-109 220 -157 390 -246 288 -150 633 -345 730 -411 153 -104 314 -256 394
-372 89 -130 202 -449 187 -532 -3 -16 -6 -76 -7 -132 -3 -102 -13 -134 -23
-70 -3 17 -11 77 -17 132 -22 199 -123 442 -248 597 -180 222 -371 350 -1083
724 -177 93 -278 157 -441 283 -43 33 -126 86 -184 118 -110 60 -114 63 -167
153 -17 30 -38 64 -45 75 -12 19 -3 32 131 165 146 147 222 247 306 400 49 90
178 386 193 444 22 85 21 82 10 66 -9 -12 -11 -10 -12 10 0 14 -7 -4 -15 -39
-8 -36 -15 -66 -17 -67 -1 -1 -2 73 -3 164 0 137 -4 181 -22 244 -53 195 -169
426 -285 570 -65 80 -68 110 -31 254 23 87 29 129 28 209 -1 193 -56 326 -232
563 -86 117 -149 247 -168 352 -30 157 -11 414 43 607 l18 62 -3 -257 c-3
-228 -1 -268 17 -356 25 -122 83 -243 181 -376 168 -229 213 -349 210 -559 -2
-124 -3 -121 21 -84 44 70 18 275 -55 427 -19 39 -80 136 -136 216 -101 144
-156 244 -181 330 -10 31 -14 108 -14 250 -1 113 -4 219 -9 237 -18 77 41 312
132 519 74 168 138 381 157 519 12 87 -11 38 -50 -110 -31 -119 -152 -451
-161 -442 -2 1 21 74 51 162 83 246 115 436 115 687 0 406 -103 800 -369 1416
-54 125 -119 288 -145 362 -62 176 -111 276 -195 402 -105 155 -191 259 -341
408 -224 225 -462 403 -810 608 -80 47 -235 139 -344 205 -206 124 -374 209
-485 246 -128 44 -199 53 -451 60 l-245 7 -157 47 c-86 25 -203 53 -261 61
-111 17 -336 19 -447 5z m431 -125 c46 -8 158 -36 249 -61 l165 -45 250 -8
c295 -9 385 -25 558 -97 160 -66 670 -358 997 -571 195 -127 339 -241 495
-393 249 -244 377 -430 482 -699 31 -80 87 -224 124 -320 38 -96 67 -176 65
-177 -6 -6 -95 211 -159 388 -35 96 -80 206 -100 244 -160 316 -485 650 -907
929 -217 144 -657 404 -872 514 -247 127 -347 151 -688 162 l-255 8 -180 50
c-237 65 -315 76 -505 70 -414 -13 -775 -169 -1491 -646 -74 -49 -183 -117
-242 -152 -65 -39 -103 -66 -95 -70 7 -4 40 -12 73 -19 193 -40 473 -259 571
-445 32 -62 27 -89 -18 -94 -20 -2 -32 8 -70 65 -99 149 -181 226 -308 292
-159 83 -315 107 -487 77 -198 -34 -272 -80 -493 -305 -127 -129 -193 -187
-285 -252 -141 -98 -219 -168 -248 -224 -31 -57 -31 -181 -1 -222 32 -43 73
-62 160 -73 165 -22 201 -30 254 -57 103 -53 143 -167 106 -309 -25 -95 -46
-216 -40 -226 3 -4 33 -22 67 -40 124 -62 213 -184 333 -453 155 -350 289
-565 458 -737 206 -210 419 -309 666 -311 131 -1 195 14 300 69 61 32 186 122
178 129 -1 2 -34 -3 -73 -11 -94 -18 -274 -18 -372 1 -241 46 -466 168 -584
317 -69 88 -108 177 -155 358 -38 145 -39 310 -1 450 107 399 117 453 117 640
0 283 -60 481 -185 604 -71 71 -146 112 -245 137 -83 20 -120 43 -120 75 0 45
129 30 257 -30 86 -41 220 -164 271 -249 83 -138 136 -364 130 -558 l-3 -105
35 -32 35 -32 -46 25 -46 25 -6 153 c-7 210 -36 334 -119 507 -71 148 -216
262 -375 295 -62 13 -68 13 -90 -5 l-24 -19 43 -11 c134 -36 185 -56 237 -95
131 -97 199 -205 245 -387 67 -263 56 -488 -39 -808 -56 -189 -67 -253 -67
-385 0 -198 44 -351 144 -501 176 -263 593 -422 946 -360 106 18 132 20 132 6
0 -19 -127 -112 -205 -150 -109 -54 -180 -71 -305 -72 -245 -1 -450 89 -662
290 -110 105 -193 210 -291 368 -89 144 -108 180 -207 401 -138 308 -202 397
-326 455 -36 17 -68 36 -71 44 -2 7 5 45 17 86 31 105 38 273 15 333 -38 102
-85 126 -276 149 -140 16 -219 47 -244 97 -24 45 -17 168 12 224 31 59 108
132 235 223 157 112 210 159 338 299 119 131 215 205 315 242 77 29 212 51
309 51 256 -1 475 -131 658 -391 39 -55 68 -75 68 -46 0 22 -77 150 -127 212
-111 136 -279 242 -451 283 -46 11 -87 23 -90 27 -9 9 24 32 163 116 66 40
194 123 285 185 507 343 897 527 1228 578 123 20 360 20 463 0z m-1642 -377
c30 -7 56 -17 58 -24 5 -13 -151 -126 -327 -238 -155 -98 -394 -226 -505 -271
-219 -88 -311 -153 -468 -332 -54 -62 -102 -112 -106 -112 -5 0 -19 8 -32 19
-97 76 -326 79 -472 5 -51 -26 -167 -111 -167 -123 0 -3 -10 -17 -21 -31 -20
-24 -20 -24 -14 -2 6 20 4 21 -19 12 -40 -15 63 83 137 131 85 55 172 80 292
86 92 4 107 1 185 -27 47 -17 90 -32 95 -33 6 -1 47 41 91 93 144 170 239 236
465 323 113 44 385 189 533 283 158 102 297 207 286 218 -6 6 -72 10 -168 10
-264 1 -379 -40 -612 -214 -230 -173 -374 -253 -514 -285 -36 -9 -137 -20
-223 -25 -173 -11 -258 -28 -336 -65 -113 -53 -188 -144 -268 -327 -75 -168
-138 -247 -328 -412 -82 -70 -181 -183 -181 -206 0 -4 35 3 79 16 163 47 313
55 435 24 92 -23 193 -67 200 -86 8 -21 -9 -17 -50 11 -121 82 -326 93 -577
30 -54 -14 -102 -25 -107 -25 -33 0 74 144 172 232 232 206 271 256 356 446
129 288 243 361 597 382 301 17 412 64 740 310 181 136 259 173 439 205 88 16
263 17 335 2z m1091 -22 c204 -42 394 -147 563 -313 203 -198 307 -436 401
-912 47 -239 86 -343 183 -494 81 -125 244 -276 362 -335 64 -32 188 -74 276
-93 146 -31 392 -7 593 57 89 29 115 31 132 10 32 -39 -33 -85 -191 -133 -196
-60 -478 -68 -659 -18 -282 79 -520 268 -644 513 -39 78 -31 77 16 -2 148
-249 364 -414 643 -491 91 -26 115 -28 275 -28 141 0 193 4 270 21 114 25 259
79 267 100 12 30 -13 32 -92 7 -162 -50 -271 -67 -425 -68 -128 0 -157 3 -244
27 -186 51 -378 157 -490 272 -164 166 -251 359 -316 701 -55 292 -109 454
-213 637 -96 171 -198 280 -354 383 -160 105 -511 200 -553 149 -18 -22 -5
-32 52 -39 250 -32 477 -141 638 -305 67 -68 203 -256 243 -336 38 -76 80
-236 148 -560 22 -104 44 -207 50 -229 6 -21 8 -40 5 -43 -10 -10 -57 165
-101 375 -73 358 -107 452 -223 627 -150 226 -433 400 -721 444 -40 6 -82 16
-92 22 -25 13 -36 58 -18 70 16 11 127 2 219 -16z m-268 -27 c-7 -7 -12 -8
-12 -2 0 14 12 26 19 19 2 -3 -1 -11 -7 -17z m1790 -123 c163 -44 330 -155
423 -279 73 -98 112 -193 180 -429 71 -251 156 -398 299 -519 123 -103 249
-155 481 -198 59 -11 114 -25 121 -31 8 -6 14 -24 14 -40 0 -51 -32 -57 -166
-31 -236 46 -366 97 -495 193 -115 85 -216 209 -259 319 -11 29 -19 54 -18 56
2 1 20 -30 41 -70 79 -154 216 -285 383 -367 159 -78 477 -151 491 -112 10 28
-35 50 -148 72 -257 51 -385 110 -523 240 -119 113 -190 249 -264 507 -27 93
-61 198 -76 234 -123 300 -361 460 -684 460 -118 0 -164 -9 -170 -32 -5 -19
-37 -25 -47 -9 -9 15 23 40 58 45 18 3 43 8 57 10 48 9 246 -3 302 -19z m-442
-34 c0 -6 -4 -13 -10 -16 -5 -3 -10 1 -10 9 0 9 5 16 10 16 6 0 10 -4 10 -9z
m329 -32 c267 -43 468 -202 568 -449 23 -58 114 -392 108 -398 -6 -6 -55 137
-85 248 -57 210 -108 308 -208 400 -76 70 -168 120 -287 156 -76 23 -111 27
-225 29 -156 2 -179 6 -95 15 97 11 156 11 224 -1z m-2426 -49 c-3 -11 -9 -20
-14 -20 -10 0 -12 24 -2 33 13 13 21 7 16 -13z m47 -9 c0 -6 -4 -13 -10 -16
-5 -3 -10 1 -10 9 0 9 5 16 10 16 6 0 10 -4 10 -9z m155 -24 c266 -109 515
-336 638 -582 76 -153 135 -382 183 -715 19 -135 46 -292 59 -348 56 -235 149
-398 321 -562 166 -158 365 -222 696 -224 129 -1 160 -4 173 -17 32 -32 5 -60
-126 -131 -147 -80 -237 -115 -339 -134 -284 -51 -670 51 -930 248 -256 192
-491 566 -540 858 -6 36 -12 108 -13 160 l-2 95 35 0 c39 0 37 8 65 -180 22
-142 55 -246 118 -370 124 -242 355 -477 580 -591 89 -46 221 -89 332 -109
127 -24 339 -16 447 17 82 25 105 38 70 38 -35 0 -274 49 -322 66 -194 70
-376 214 -492 389 -60 92 -87 148 -136 280 -46 127 -70 238 -112 530 -37 258
-53 337 -96 487 -41 144 -92 246 -181 363 -90 118 -192 198 -389 308 -179 98
-186 117 -13 30 210 -106 347 -223 454 -387 144 -222 187 -370 275 -949 46
-302 71 -399 134 -525 113 -224 310 -408 528 -492 76 -30 332 -89 385 -90 53
0 25 -21 -80 -56 l-112 -39 -175 1 c-156 1 -186 4 -273 27 -243 65 -536 255
-693 450 -170 213 -260 419 -287 664 -7 63 -16 111 -22 110 -16 -3 -10 -191 9
-292 21 -108 47 -177 122 -316 70 -131 145 -233 246 -332 111 -109 193 -168
327 -236 184 -93 336 -136 525 -147 184 -12 356 33 555 145 93 53 112 67 109
85 -3 20 -7 21 -123 18 -195 -6 -421 35 -548 99 -282 142 -472 398 -542 728
-8 39 -29 166 -45 283 -67 459 -126 664 -253 872 -52 86 -150 207 -205 253
-103 87 -329 213 -411 229 -17 4 -34 11 -37 15 -10 17 32 8 111 -24z m-1750
-661 c33 -13 34 -15 10 -11 -76 14 -204 17 -256 6 -75 -16 -168 -61 -238 -116
-34 -27 -67 -45 -82 -44 -23 0 -23 1 -3 9 11 4 51 31 88 59 86 65 133 89 210
107 76 17 216 12 271 -10z m79 -27 c-3 -5 -58 -49 -122 -98 -233 -176 -305
-280 -305 -441 0 -107 28 -153 118 -197 55 -27 82 -33 206 -43 113 -9 148 -21
189 -65 34 -37 39 -138 11 -255 -42 -178 -55 -306 -56 -530 0 -198 2 -221 23
-290 54 -169 139 -290 274 -391 139 -103 269 -156 441 -179 81 -11 127 -35
127 -66 0 -29 -247 -35 -385 -9 -250 47 -502 203 -615 381 -108 171 -159 464
-131 763 7 77 8 128 2 134 -6 6 -37 -19 -83 -64 -131 -131 -195 -304 -287
-782 -51 -266 -51 -264 -121 -201 -94 85 -169 307 -171 504 -1 138 -5 144 -62
80 -26 -29 -63 -81 -82 -115 -42 -74 -107 -270 -126 -375 -25 -140 -11 -382
31 -525 4 -16 11 -43 15 -60 6 -28 5 -29 -8 -10 -12 17 -18 32 -33 90 -83 317
-53 616 89 889 46 89 113 166 143 166 44 0 51 -19 57 -145 4 -69 15 -156 27
-205 34 -138 137 -326 159 -291 5 7 25 97 45 200 98 492 172 702 285 804 56
50 78 60 118 52 l35 -6 -6 -67 c-38 -418 15 -680 180 -899 68 -91 146 -150
289 -219 156 -75 256 -98 425 -98 146 1 195 10 181 33 -6 9 -47 19 -111 28
-207 28 -383 115 -525 258 -97 97 -141 170 -191 318 -37 110 -38 115 -42 289
-4 199 12 360 55 536 43 180 33 246 -42 278 -19 7 -83 18 -143 23 -129 12
-205 38 -257 88 -125 122 -104 328 50 486 60 61 314 249 327 241 5 -3 6 -10 2
-15z m5433 -29 c366 -171 614 -548 687 -1045 21 -141 33 -385 19 -385 -13 0
-23 48 -23 113 0 172 -66 497 -136 664 -121 293 -346 539 -597 653 -76 34 -92
37 -101 14 -8 -21 -16 -15 77 -57 185 -85 401 -286 507 -472 41 -73 116 -263
145 -370 30 -110 62 -316 71 -462 7 -102 7 -103 32 -103 19 0 23 -3 15 -11 -6
-6 -21 -9 -34 -7 -23 3 -24 8 -36 138 -33 372 -90 596 -203 793 -118 208 -312
387 -516 479 -74 33 -102 62 -90 94 10 26 82 12 183 -36z m-212 19 c-10 -15
-25 -10 -19 6 4 8 10 12 15 9 5 -3 7 -10 4 -15z m-355 -294 c13 -14 21 -25 18
-25 -2 0 -15 11 -28 25 -13 14 -21 25 -18 25 2 0 15 -11 28 -25z m971 8 c13
-16 12 -17 -3 -4 -10 7 -18 15 -18 17 0 8 8 3 21 -13z m-6471 -298 c41 -15 85
-28 98 -29 12 0 22 -4 22 -8 0 -19 -28 -16 -112 14 -90 32 -98 33 -238 32
-170 -1 -258 -20 -385 -84 -136 -68 -290 -213 -367 -347 -36 -64 -47 -70 -17
-10 63 123 206 281 313 346 144 87 286 122 476 117 118 -3 144 -6 210 -31z
m111 -235 c22 0 39 -4 39 -8 0 -4 -42 -6 -92 -4 -210 9 -443 -86 -606 -248
-112 -111 -179 -232 -287 -515 -67 -174 -114 -272 -144 -299 -21 -20 -22 -20
-42 0 -11 11 -31 52 -44 90 -64 183 -72 424 -21 582 15 46 29 82 32 80 2 -2
-6 -36 -18 -74 -27 -90 -30 -299 -4 -419 24 -114 66 -236 78 -229 14 9 58 108
134 304 151 383 264 533 496 652 136 70 263 101 382 92 32 -2 76 -4 97 -4z
m90 -20 c10 -6 19 -17 19 -25 0 -19 -5 -19 -35 1 -41 27 -27 47 16 24z m-1
-60 c9 -5 -48 -9 -135 -8 -120 0 -165 -4 -227 -20 -143 -38 -261 -113 -380
-241 -89 -96 -142 -192 -231 -421 -65 -166 -179 -421 -185 -415 -4 4 43 120
108 263 28 62 64 150 81 195 82 223 153 341 270 452 116 109 262 182 412 205
60 10 265 2 287 -10z m6880 -125 c0 -5 -5 -3 -10 5 -5 8 -10 20 -10 25 0 6 5
3 10 -5 5 -8 10 -19 10 -25z m30 -70 c0 -5 -5 -3 -10 5 -5 8 -10 20 -10 25 0
6 5 3 10 -5 5 -8 10 -19 10 -25z m-8139 -2 c-12 -20 -14 -14 -5 12 4 9 9 14
11 11 3 -2 0 -13 -6 -23z m6708 -6 c0 -21 -1 -21 -9 -2 -12 28 -12 37 0 30 6
-3 10 -16 9 -28z m-3855 -49 c7 -5 5 -13 -6 -25 -17 -16 -18 -15 -17 22 0 22
3 33 6 25 3 -8 11 -18 17 -22z m69 -30 c77 -82 150 -194 225 -343 33 -66 81
-148 107 -183 73 -97 239 -217 348 -252 34 -11 66 -44 53 -57 -7 -7 -109 31
-156 58 -37 21 -32 20 69 -18 35 -13 65 -22 68 -20 2 2 -24 14 -57 26 -60 22
-166 89 -250 158 l-45 37 45 -48 c45 -49 45 -49 7 -20 -71 54 -146 163 -227
326 -79 159 -163 292 -228 361 -20 20 -32 37 -27 37 4 0 35 -28 68 -62z m5247
17 c0 -5 -5 -3 -10 5 -5 8 -10 20 -10 25 0 6 5 3 10 -5 5 -8 10 -19 10 -25z
m-5061 -99 c27 -40 80 -128 117 -197 73 -136 126 -215 200 -299 44 -50 46 -52
14 -29 -63 46 -165 185 -230 312 -74 144 -122 227 -164 282 -20 26 -23 34 -9
21 12 -10 44 -51 72 -90z m5091 19 c0 -5 -5 -3 -10 5 -5 8 -10 20 -10 25 0 6
5 3 10 -5 5 -8 10 -19 10 -25z m79 -221 c166 -493 192 -893 86 -1315 -14 -53
-67 -217 -119 -365 -151 -432 -169 -515 -170 -789 0 -145 3 -193 18 -245 23
-83 82 -200 152 -304 31 -44 80 -116 109 -159 112 -164 152 -354 109 -526 -22
-86 -41 -123 -62 -119 -39 7 -110 143 -142 273 -10 40 -20 60 -30 60 -39 0
-15 -150 40 -259 40 -77 144 -231 235 -346 104 -131 170 -244 218 -372 31 -81
60 -204 54 -220 -4 -8 -6 -6 -6 5 -2 39 -75 243 -118 329 -26 52 -93 153 -153
232 -226 298 -258 355 -291 508 -27 125 -28 133 -6 132 9 -1 17 2 17 7 0 14
26 10 40 -5 6 -8 18 -45 25 -81 14 -67 90 -225 112 -232 20 -7 54 124 60 232
9 160 -22 243 -171 450 -152 213 -202 333 -226 550 -31 282 -3 443 155 895
140 399 173 550 182 812 10 305 -26 546 -128 849 -76 229 -73 218 -60 198 5
-8 37 -96 70 -195z m-5314 42 c25 -50 35 -82 35 -116 0 -50 35 -180 49 -180 4
0 17 -17 29 -37 11 -21 31 -45 43 -53 12 -8 38 -26 58 -40 20 -14 50 -32 66
-40 17 -8 75 -44 130 -80 55 -37 136 -81 180 -99 44 -18 90 -39 103 -47 12 -8
43 -56 68 -107 25 -50 70 -128 100 -173 30 -44 54 -83 54 -87 0 -9 -55 -36
-109 -53 -68 -22 -227 -29 -317 -14 -181 29 -395 124 -499 222 -56 52 -75 79
-121 172 -97 201 -127 396 -89 589 10 48 20 85 22 83 3 -2 0 -28 -6 -58 -11
-58 -14 -113 -10 -198 1 -41 4 -28 10 50 6 95 50 285 88 384 l12 29 34 -39
c19 -22 51 -70 70 -108z m-2116 115 c19 -12 17 -63 -4 -76 -223 -132 -356
-272 -433 -458 -43 -102 -107 -320 -137 -462 -41 -198 -30 -368 36 -549 83
-227 274 -416 421 -416 42 0 50 3 60 24 9 20 7 29 -8 49 -11 13 -52 66 -93
118 -71 91 -138 205 -127 217 3 3 6 1 6 -5 0 -19 102 -167 176 -256 74 -89 92
-123 80 -153 -6 -14 -17 -16 -78 -11 -108 9 -183 50 -290 158 -75 76 -94 102
-137 191 -71 148 -86 221 -85 403 0 176 20 281 91 500 109 335 220 492 436
619 84 49 103 70 72 82 -31 12 -201 -104 -291 -198 -111 -116 -180 -241 -249
-451 -165 -505 -146 -825 70 -1139 49 -71 63 -98 51 -98 -15 0 -89 38 -136 70
-217 147 -355 458 -321 723 7 50 13 93 15 94 1 1 2 -57 2 -130 1 -192 43 -341
138 -485 65 -99 221 -242 264 -242 7 0 -10 34 -39 77 -141 209 -205 456 -179
689 31 278 137 611 249 782 75 113 200 232 312 294 86 49 104 54 128 39z m941
-67 c0 -15 4 -23 10 -19 6 4 8 16 5 27 -7 19 -6 19 27 2 127 -65 177 -142 354
-544 79 -181 115 -249 215 -403 32 -50 55 -95 51 -99 -5 -5 -53 3 -108 17
-338 84 -566 337 -592 655 -8 94 -1 281 13 353 8 42 25 50 25 11z m-436 -39
c-13 -20 -14 -29 -5 -38 8 -8 11 -6 11 9 1 10 7 30 14 43 12 21 14 -5 19 -190
5 -220 19 -322 57 -435 23 -67 25 -90 5 -54 -8 14 -14 21 -15 17 0 -16 84
-153 133 -215 118 -150 364 -285 611 -336 89 -19 258 -21 373 -5 73 11 85 10
105 -5 13 -9 59 -44 103 -76 93 -69 186 -116 305 -156 80 -26 96 -28 255 -28
159 -1 175 1 250 26 117 40 199 92 296 190 l87 86 53 -50 c80 -74 147 -124
314 -233 236 -155 325 -259 370 -435 9 -35 23 -76 30 -90 31 -60 89 -345 120
-585 9 -71 20 -134 25 -138 7 -8 120 -19 311 -31 60 -3 92 -1 103 7 10 8 26
53 41 117 65 286 121 417 220 515 78 77 174 128 302 160 93 24 100 28 146 78
26 28 77 82 112 119 192 200 491 208 684 19 83 -81 141 -209 171 -378 16 -87
8 -297 -14 -399 -88 -407 -376 -883 -644 -1063 -97 -65 -167 -93 -248 -99
-168 -11 -283 74 -325 242 -15 60 -25 65 -43 21 -14 -33 -14 -40 5 -91 11 -30
36 -75 55 -99 19 -25 34 -51 34 -59 0 -7 10 -21 22 -32 19 -17 21 -17 15 -1
-8 22 -8 22 50 -7 59 -30 153 -48 204 -40 l38 6 -9 -33 c-41 -143 -61 -424
-40 -567 37 -252 152 -464 343 -627 109 -93 132 -138 130 -255 -2 -87 -12
-139 -79 -365 -36 -124 -37 -137 -38 -281 l-1 -150 44 -90 c67 -136 201 -257
294 -267 20 -2 22 2 21 48 0 28 -11 88 -24 135 -34 118 -34 254 -1 363 13 42
26 76 28 73 2 -2 15 -44 28 -94 14 -49 37 -116 51 -148 38 -88 125 -212 189
-273 l57 -54 -23 -18 c-30 -23 -309 -177 -549 -304 -102 -54 -225 -119 -275
-145 -202 -107 -800 -402 -950 -468 -365 -161 -677 -270 -910 -318 -125 -26
-160 -29 -327 -29 -118 0 -191 4 -198 11 -7 7 -1 35 21 95 68 182 81 244 86
404 4 125 1 170 -16 270 -28 154 -69 308 -126 472 -25 72 -43 138 -39 146 3 8
31 25 62 38 170 67 488 240 687 372 626 417 1063 974 1194 1522 12 50 26 99
32 110 14 29 19 74 25 220 l6 130 -26 24 c-14 14 -26 20 -26 15 0 -23 -62
-373 -80 -456 -90 -405 -295 -748 -652 -1093 -275 -267 -598 -489 -983 -676
-338 -165 -586 -235 -914 -259 -416 -31 -754 61 -979 266 -83 75 -165 190
-272 377 -44 79 -106 171 -136 206 -30 34 -52 66 -50 70 2 3 42 26 88 49 58
29 118 73 196 141 102 90 162 131 190 131 20 0 24 21 9 44 -9 12 -69 56 -134
96 -65 41 -176 111 -247 157 -216 141 -265 158 -355 127 -50 -18 -50 -18 -91
5 -32 18 -52 22 -81 18 -21 -3 -39 -3 -39 0 0 3 7 33 16 67 32 119 16 304 -42
504 l-7 24 41 -21 c99 -51 111 -6 13 49 -93 53 -136 93 -168 157 -23 48 -28
70 -28 133 1 86 15 125 118 316 276 512 355 705 345 846 -14 183 -255 514
-490 673 -50 33 -88 66 -88 75 0 8 16 88 35 175 33 150 51 241 155 800 48 258
105 485 153 607 37 92 85 183 94 175 2 -3 -3 -17 -13 -32z m5434 -141 c168
-30 387 -115 541 -211 258 -161 474 -428 576 -711 25 -69 65 -209 65 -226 0
-29 -28 28 -75 151 -28 76 -69 172 -90 213 -168 332 -493 611 -847 725 -229
74 -475 84 -738 30 -120 -24 -147 -34 -153 -55 -7 -26 -50 -28 -45 -2 6 35
216 86 422 101 121 10 231 5 344 -15z m-797 -85 c-9 -22 -10 -22 -10 -3 -1 11
2 24 6 27 12 12 14 0 4 -24z m759 7 c125 -19 239 -56 379 -122 147 -70 264
-149 374 -253 171 -164 275 -331 357 -578 47 -142 50 -148 75 -146 17 1 25 -2
22 -10 -2 -7 -17 -12 -33 -12 -26 0 -30 4 -38 40 -26 125 -129 362 -204 471
-242 354 -704 604 -1117 604 -90 0 -298 -23 -422 -46 -50 -9 -89 -12 -98 -6
-11 6 25 15 112 31 246 42 433 51 593 27z m-4050 -156 l-7 -125 -1 121 c-2
101 3 145 13 132 1 -2 -1 -59 -5 -128z m-2020 117 c0 -2 -12 -14 -27 -28 l-28
-24 24 28 c23 25 31 32 31 24z m63 -224 c10 -180 78 -366 175 -481 74 -88 83
-104 76 -142 -29 -166 -87 -447 -105 -507 -31 -102 -47 -109 -108 -46 -60 62
-138 181 -168 253 -81 202 -94 457 -34 679 19 66 22 43 6 -35 -19 -91 -19
-289 0 -421 19 -123 49 -218 98 -305 38 -66 124 -179 143 -185 13 -4 60 183
109 436 40 207 45 173 -43 282 -93 114 -158 291 -171 464 l-7 100 -18 -40
c-11 -22 -32 -74 -47 -115 -31 -84 -40 -74 -10 11 32 94 76 173 91 164 4 -2
10 -53 13 -112z m1964 -65 c-3 -7 -5 -2 -5 12 0 14 2 19 5 13 2 -7 2 -19 0
-25z m1047 -93 c126 -334 285 -524 634 -757 76 -50 161 -111 190 -136 67 -58
141 -169 182 -274 62 -159 124 -445 151 -697 11 -100 15 -114 34 -121 12 -4
79 -10 150 -12 l128 -3 23 105 c28 124 53 197 106 304 49 100 68 127 137 199
89 92 168 132 368 186 27 7 54 25 75 49 18 20 69 74 113 118 127 129 259 185
425 182 l85 -1 -107 -7 c-99 -5 -112 -9 -195 -49 -78 -39 -102 -58 -215 -172
-70 -71 -129 -129 -132 -129 -45 0 -172 -37 -229 -67 -86 -45 -205 -159 -256
-247 -52 -87 -107 -232 -137 -358 -14 -62 -28 -119 -30 -126 -3 -11 -29 -12
-126 -6 -68 4 -145 10 -173 13 l-50 6 -8 65 c-49 402 -116 682 -205 855 -48
93 -163 207 -312 309 -341 234 -452 351 -576 601 -54 109 -119 288 -103 283 7
-2 31 -53 53 -113z m-1037 53 c-3 -8 -6 -5 -6 6 -1 11 2 17 5 13 3 -3 4 -12 1
-19z m-2656 -45 c-12 -20 -14 -14 -5 12 4 9 9 14 11 11 3 -2 0 -13 -6 -23z
m550 -24 c-5 -13 -10 -19 -10 -12 -1 15 10 45 15 40 3 -2 0 -15 -5 -28z m3456
-6 c-3 -10 -5 -4 -5 12 0 17 2 24 5 18 2 -7 2 -21 0 -30z m157 -72 c120 -198
220 -317 361 -426 156 -121 310 -195 498 -240 197 -47 343 -55 550 -30 130 15
167 10 167 -25 0 -21 0 -21 -27 -1 -27 19 -31 20 -148 4 -141 -18 -329 -13
-450 12 -277 57 -560 203 -745 385 -83 82 -134 150 -218 290 -63 105 -91 135
-84 86 6 -37 69 -159 133 -256 178 -270 528 -494 892 -571 142 -31 378 -31
526 -1 104 21 130 22 94 4 -48 -25 -222 -47 -373 -47 -221 1 -384 39 -600 141
-298 141 -509 351 -664 661 -48 95 -48 123 0 123 18 0 36 -22 88 -109z m889
-21 c-3 -12 -8 -19 -11 -16 -5 6 5 36 12 36 2 0 2 -9 -1 -20z m163 -18 c212
-103 268 -112 749 -122 460 -9 556 -21 780 -95 226 -74 394 -173 543 -318 184
-180 298 -374 372 -632 56 -193 65 -263 64 -480 -1 -110 -5 -220 -10 -245 -9
-43 -11 -45 -44 -45 l-34 0 3 215 c2 186 0 229 -19 320 -62 304 -202 581 -390
770 -186 188 -396 297 -684 355 -171 35 -312 45 -623 45 -149 0 -306 5 -349
11 -160 22 -343 90 -445 165 -49 36 -60 59 -37 82 19 19 39 15 124 -26z
m-5289 -124 c-3 -8 -6 -5 -6 6 -1 11 2 17 5 13 3 -3 4 -12 1 -19z m5841 -533
c-3 -3 -9 2 -12 12 -6 14 -5 15 5 6 7 -7 10 -15 7 -18z m769 -81 c-3 -3 -12
-4 -19 -1 -8 3 -5 6 6 6 11 1 17 -2 13 -5z m138 -48 c90 -47 185 -149 234
-248 23 -46 48 -110 57 -143 21 -77 29 -239 18 -351 l-8 -89 -7 175 c-8 201
-27 290 -85 401 -61 116 -173 222 -295 279 -43 21 -43 21 -9 14 19 -3 62 -20
95 -38z m-5674 -322 c136 -104 229 -209 229 -257 0 -17 -5 -19 -32 -13 -37 7
-340 154 -350 170 -4 6 -7 43 -7 81 l2 70 8 -70 c5 -38 13 -73 17 -77 12 -11
244 -125 284 -139 46 -16 54 -9 38 30 -22 55 -229 233 -314 272 -14 7 -23 16
-20 20 6 10 65 -25 145 -87z m167 -300 c34 -13 76 -24 92 -24 20 0 30 -5 30
-15 0 -12 -18 -15 -95 -17 -196 -4 -174 -9 -206 47 -15 28 -31 62 -34 77 l-7
28 78 -36 c44 -20 107 -47 142 -60z m99 -90 c-3 -3 -12 -4 -19 -1 -8 3 -5 6 6
6 11 1 17 -2 13 -5z m14 -30 c45 -14 99 -58 86 -70 -3 -4 -21 3 -39 14 -48 29
-133 52 -195 52 -63 0 -71 17 -10 22 56 5 102 -1 158 -18z m-78 -41 c-7 -2
-19 -2 -25 0 -7 3 -2 5 12 5 14 0 19 -2 13 -5z m66 -29 c43 -55 34 -152 -19
-206 -30 -29 -70 -37 -88 -15 -10 12 -52 147 -51 163 0 5 12 -24 27 -63 32
-85 42 -97 72 -88 38 12 60 63 60 137 0 63 -2 68 -27 82 -19 10 -22 15 -11 16
9 0 26 -12 37 -26z m89 -64 c31 -29 38 -66 19 -104 -14 -31 -70 -66 -83 -53
-3 3 1 34 10 69 9 36 16 74 16 86 0 27 10 28 38 2z m5589 -112 c-3 -8 -6 -5
-6 6 -1 11 2 17 5 13 3 -3 4 -12 1 -19z m-11 -54 c-28 -148 -152 -416 -287
-619 -124 -187 -299 -365 -434 -440 l-90 -50 -23 -85 c-16 -60 -21 -72 -18
-40 3 25 12 68 20 95 14 47 20 52 78 82 35 18 100 62 144 97 239 189 516 629
595 944 15 59 25 70 15 16z m-5570 -36 c-3 -18 -22 -67 -42 -108 l-36 -75 -23
30 c-27 32 -79 125 -73 129 6 5 153 53 167 55 10 1 12 -7 7 -31z m5853 -107
c22 -22 117 -305 161 -480 41 -163 50 -230 49 -361 l-2 -115 -13 124 c-16 163
-29 228 -76 396 -64 232 -119 388 -144 416 -35 37 -11 56 25 20z m-50 -40 c6
-27 40 -158 76 -292 112 -417 129 -638 70 -877 -41 -170 -150 -428 -227 -540
-31 -44 -30 -65 0 -46 28 17 88 112 151 239 69 141 106 238 137 355 12 47 23
76 23 65 1 -33 -47 -203 -85 -300 -56 -141 -172 -346 -217 -384 -21 -17 -57
-5 -57 19 0 10 30 78 68 151 153 303 214 525 216 789 1 155 -11 230 -66 425
-38 135 -118 433 -118 441 0 2 4 4 9 4 5 0 14 -22 20 -49z m666 -268 c-4 -82
-15 -227 -26 -323 -11 -96 -24 -218 -28 -270 l-8 -95 -2 144 c0 85 7 213 18
315 26 230 31 310 21 326 -10 15 5 50 21 50 6 0 8 -52 4 -147z m62 105 c13
-40 5 -244 -18 -476 -17 -172 -7 -375 25 -496 34 -130 67 -183 206 -330 126
-133 175 -200 225 -309 46 -99 65 -203 64 -339 -1 -149 -5 -163 -49 -163 -34
0 -35 1 -33 40 8 204 -1 261 -66 400 -43 92 -108 181 -230 315 -48 52 -98 111
-112 130 -66 90 -130 253 -128 331 0 25 5 15 20 -41 10 -41 41 -120 69 -176
40 -84 66 -120 152 -213 247 -271 307 -394 312 -640 3 -126 10 -148 37 -115
20 25 17 220 -6 309 -40 160 -118 287 -272 448 -121 126 -163 188 -197 289
-49 144 -55 300 -27 618 5 58 12 170 16 250 6 138 6 146 -14 169 -26 29 -27
44 -3 39 9 -2 22 -19 29 -40z m-1109 -664 c2 -11 -6 -52 -18 -90 -11 -38 -18
-55 -15 -39 16 95 17 125 6 125 -16 0 -25 -24 -65 -170 -58 -209 -90 -396 -99
-585 -2 -33 -4 5 -5 85 -2 168 11 263 68 491 54 214 53 211 92 207 24 -2 34
-8 36 -24z m629 -156 c-2 -13 -4 -3 -4 22 0 25 2 35 4 23 2 -13 2 -33 0 -45z
m360 -10 c-3 -7 -5 -2 -5 12 0 14 2 19 5 13 2 -7 2 -19 0 -25z m-1033 -42 c-3
-21 -8 -35 -11 -32 -2 2 -1 20 3 40 3 21 8 35 11 32 2 -2 1 -20 -3 -40z m663
-23 c-3 -10 -5 -4 -5 12 0 17 2 24 5 18 2 -7 2 -21 0 -30z m-680 -45 c-3 -8
-6 -5 -6 6 -1 11 2 17 5 13 3 -3 4 -12 1 -19z m-650 -50 c-2 -13 -4 -5 -4 17
-1 22 1 32 4 23 2 -10 2 -28 0 -40z m640 0 c-3 -7 -5 -2 -5 12 0 14 2 19 5 13
2 -7 2 -19 0 -25z m-18 -100 c-8 -43 -14 -139 -13 -233 2 -400 121 -708 379
-982 72 -77 86 -97 83 -120 -2 -22 -9 -29 -29 -31 -32 -4 -100 55 -192 166
-185 222 -305 479 -321 687 l-6 70 15 -80 c34 -179 107 -347 226 -525 93 -140
272 -320 295 -297 3 2 -30 40 -73 84 -143 147 -270 349 -322 511 -57 179 -65
238 -66 462 0 184 17 381 32 366 3 -3 -1 -38 -8 -78z m-609 -312 c23 -114 87
-267 153 -366 16 -25 82 -97 147 -160 146 -144 161 -172 158 -302 l-1 -93 -6
80 c-10 121 -39 173 -163 287 -235 217 -320 429 -316 787 l1 156 8 -165 c4
-91 12 -192 19 -224z m1330 -177 c-7 -11 -14 -18 -17 -15 -3 3 0 12 7 21 18
21 23 19 10 -6z m90 -4 c7 -9 17 -61 21 -116 23 -268 106 -500 233 -647 102
-118 210 -190 356 -238 68 -21 110 -28 210 -32 124 -4 126 -4 157 22 80 68
232 473 233 623 0 15 5 35 10 43 16 24 12 -91 -6 -178 -35 -175 -131 -406
-207 -498 l-31 -37 -145 6 c-216 8 -363 57 -500 169 -65 52 -166 178 -206 258
-56 110 -111 329 -121 483 -4 53 -13 105 -20 115 -11 16 -13 15 -23 -11 -30
-79 -6 -271 60 -476 128 -396 120 -690 -22 -893 -13 -18 -16 -29 -8 -33 31
-20 112 117 154 260 21 71 28 119 32 226 l6 136 60 -58 c148 -145 339 -229
564 -248 58 -5 107 -12 110 -14 15 -15 -21 -63 -116 -157 -120 -119 -180 -156
-239 -146 -119 19 -120 19 -156 -3 -20 -13 -63 -60 -96 -106 -76 -106 -117
-141 -186 -161 -65 -19 -132 -14 -247 16 -95 26 -131 25 -195 -5 -85 -40 -106
-35 -177 38 -139 142 -235 375 -235 571 0 57 -18 93 -42 83 -23 -8 -73 -101
-104 -192 -44 -130 -45 -334 -2 -504 8 -33 -26 -18 -76 33 -74 76 -123 176
-137 284 -6 46 -9 86 -6 89 3 3 8 -12 11 -33 13 -90 39 -172 68 -221 39 -65
104 -140 112 -132 4 4 2 36 -5 73 -7 40 -9 128 -7 224 5 175 21 243 80 342 28
47 38 55 67 58 18 2 37 0 42 -5 4 -4 12 -57 18 -118 6 -60 17 -137 26 -170 36
-137 166 -348 251 -408 l40 -28 51 26 c76 40 117 42 229 10 79 -22 110 -27
170 -23 95 6 137 33 202 131 96 141 159 178 268 156 56 -11 68 -11 97 3 66 32
267 226 267 258 0 4 -39 10 -88 14 -214 16 -386 86 -549 223 l-51 43 -7 -67
c-13 -144 -27 -231 -52 -303 -52 -158 -113 -237 -163 -210 -28 15 -25 39 15
106 48 79 72 148 91 257 26 149 3 311 -76 542 -17 50 -38 118 -46 153 -20 84
-36 354 -24 387 11 28 41 33 60 10z m-6239 -85 c49 -20 53 -20 105 -4 45 15
60 15 94 5 62 -18 500 -287 500 -306 0 -11 -141 12 -278 45 -134 33 -159 36
-205 28 -82 -15 -159 -6 -206 25 -45 30 -91 101 -100 155 -14 77 2 86 90 52z
m-84 -292 c-3 -7 -5 -2 -5 12 0 14 2 19 5 13 2 -7 2 -19 0 -25z m177 11 c28
-8 56 -8 101 1 58 11 73 9 201 -20 77 -18 177 -38 223 -46 46 -7 86 -15 88
-18 21 -20 -175 -194 -272 -242 -39 -19 -101 -40 -138 -47 -57 -9 -74 -8 -123
7 -141 44 -223 222 -159 345 17 34 23 36 79 20z m5173 -411 c-3 -7 -5 -2 -5
12 0 14 2 19 5 13 2 -7 2 -19 0 -25z m-51 -207 c-26 -93 -51 -196 -56 -228
l-9 -58 4 65 c5 63 97 419 103 400 2 -5 -17 -86 -42 -179z m1561 -523 c31 -8
61 -26 84 -49 44 -44 93 -124 85 -138 -11 -17 -258 -177 -436 -281 -533 -312
-1242 -695 -1735 -936 -777 -380 -1420 -615 -1855 -680 -157 -24 -387 -24
-505 0 -175 34 -331 116 -420 218 -47 54 -102 166 -115 237 -23 121 -6 297 41
424 37 104 113 244 199 370 92 136 322 439 336 444 7 2 17 -20 26 -54 l14 -57
-83 -123 c-262 -389 -315 -702 -143 -857 118 -106 342 -159 580 -136 365 36
742 159 1358 444 347 161 1203 609 1546 810 79 47 168 97 196 111 l52 26 86
-20 c245 -56 360 -28 472 116 114 148 126 155 217 131z m355 -333 c57 -31 146
-89 198 -129 185 -141 255 -183 620 -376 430 -226 613 -340 748 -466 123 -114
202 -224 242 -336 32 -91 26 -89 -170 32 -311 192 -476 257 -753 296 l-122 17
-26 41 c-16 26 -64 71 -125 116 -142 105 -230 194 -362 363 -122 156 -168 203
-297 300 -83 62 -175 146 -175 159 0 4 10 17 23 28 33 32 80 21 199 -45z
m-4602 -302 c15 -53 41 -205 36 -210 -6 -6 -13 18 -35 122 -10 50 -22 98 -26
108 -4 10 -3 17 3 17 6 0 16 -17 22 -37z m30 -513 c-21 -133 -100 -350 -127
-350 -8 0 -13 6 -10 13 85 194 133 351 138 447 l2 35 4 -35 c3 -19 -1 -69 -7
-110z m-285 -209 c16 -32 65 -84 110 -119 l30 -22 -35 16 c-81 38 -135 114
-145 205 l-5 54 15 -53 c8 -29 21 -65 30 -81z m6922 -588 c-3 -10 -5 -4 -5 12
0 17 2 24 5 18 2 -7 2 -21 0 -30z m-9057 -2292 c0 -18 -103 -122 -146 -147
-61 -36 -117 -51 -254 -69 -143 -19 -236 -42 -357 -88 -115 -45 -139 -49 -135
-22 10 52 80 112 222 188 123 65 196 85 368 97 82 6 179 19 218 29 87 23 84
23 84 12z"/>
<path d="M5001 17820 c0 -8 4 -22 9 -30 12 -18 12 -2 0 25 -6 13 -9 15 -9 5z"/>
<path d="M6037 16700 c-136 -34 -556 -211 -712 -300 -112 -64 -136 -122 -74
-186 89 -94 149 -87 438 52 197 95 353 157 456 180 149 35 421 19 625 -36 47
-13 58 0 37 44 -34 72 -205 179 -367 231 -117 38 -289 44 -403 15z m358 -50
c109 -29 216 -75 288 -124 107 -72 90 -79 -101 -45 -150 27 -367 23 -477 -9
-98 -29 -261 -96 -464 -192 -144 -68 -185 -83 -235 -87 -73 -5 -117 17 -143
73 l-18 36 30 25 c33 27 283 151 443 219 130 55 259 100 342 119 85 19 229 12
335 -15z"/>
<path d="M6097 16660 c-127 -23 -341 -105 -604 -231 -242 -115 -255 -129 -186
-189 33 -30 41 -32 92 -28 45 3 91 21 226 85 290 139 408 182 567 209 117 19
276 15 422 -11 48 -9 91 -14 93 -11 10 10 -120 86 -198 116 -146 56 -306 80
-412 60z"/>
<path d="M9970 16645 c-146 -41 -257 -170 -305 -355 -23 -87 -24 -268 -2 -330
9 -24 15 -46 13 -48 -2 -2 -22 2 -44 8 -72 19 -111 -18 -126 -117 -5 -32 0
-58 18 -107 30 -80 25 -105 -39 -197 -56 -80 -76 -156 -52 -193 9 -13 32 -29
51 -36 51 -16 95 6 174 91 77 81 95 92 177 109 199 41 295 147 312 344 10 121
-38 236 -128 307 -38 30 -41 31 -54 13 -12 -16 -10 -21 18 -40 37 -25 64 -60
98 -124 59 -115 -2 -330 -114 -399 -19 -12 -76 -30 -127 -41 -110 -23 -144
-43 -210 -119 -62 -71 -111 -101 -134 -82 -27 22 -18 64 24 124 51 70 79 133
80 172 0 17 -9 54 -20 83 -23 61 -26 120 -6 147 13 18 15 18 74 1 33 -10 68
-16 76 -13 20 8 21 77 1 167 -18 83 -19 230 -1 297 33 124 101 214 198 262 51
26 73 31 132 31 153 -1 256 -94 286 -260 6 -34 18 -69 26 -77 19 -19 18 -107
-2 -240 -37 -250 -122 -443 -279 -627 -31 -37 -54 -70 -51 -74 17 -16 78 33
136 110 35 46 66 83 71 83 4 0 11 4 16 9 5 5 3 6 -4 2 -21 -12 -15 11 16 67
39 68 103 259 127 372 25 123 25 318 0 400 -25 84 -51 131 -103 186 -85 91
-207 126 -323 94z"/>
<path d="M6025 16206 c-169 -33 -357 -135 -292 -159 6 -2 37 9 67 26 l55 31
-69 -66 c-41 -39 -66 -70 -61 -77 4 -8 20 0 46 24 21 19 41 35 44 35 2 0 -5
-15 -16 -34 -28 -47 -31 -151 -6 -190 54 -82 296 -109 503 -56 95 25 155 56
234 124 57 50 109 76 148 76 6 0 12 6 12 14 0 7 -6 18 -12 24 -26 21 -447 121
-565 135 -113 13 -116 13 -66 20 29 4 55 12 59 18 4 7 -6 8 -28 5 -18 -3 -55
-7 -83 -10 l-50 -5 55 14 c89 23 198 28 304 15 93 -11 144 -22 303 -67 49 -13
65 -15 75 -5 23 23 -15 42 -158 78 -121 31 -158 37 -284 40 -96 2 -168 -1
-215 -10z m155 -242 c0 -60 -31 -152 -59 -178 -22 -20 -80 -31 -115 -22 -68
17 -137 122 -135 206 l1 45 14 -64 c24 -110 79 -171 154 -171 49 0 73 20 99
80 23 54 32 158 15 183 -5 7 -1 4 9 -6 12 -13 17 -36 17 -73z m217 44 c90 -24
163 -47 163 -51 0 -18 -110 -117 -156 -140 -79 -40 -274 -85 -262 -61 50 103
68 170 68 257 0 23 5 37 13 37 6 0 85 -19 174 -42z m-503 -175 c14 -29 26 -55
26 -59 0 -13 -73 5 -92 23 -38 34 -41 62 -16 125 l23 58 16 -47 c9 -27 28 -71
43 -100z"/>
<path d="M5841 15627 c-21 -21 -11 -36 42 -60 71 -34 175 -65 275 -82 94 -17
252 -20 252 -6 0 35 -13 41 -84 41 -123 0 -304 41 -423 95 -37 17 -54 20 -62
12z"/>
<path d="M5552 14838 c-17 -17 -15 -24 13 -93 52 -126 23 -251 -74 -320 -53
-38 -66 -65 -31 -65 51 0 135 74 169 150 38 83 22 198 -42 303 -18 29 -25 35
-35 25z"/>
<path d="M5521 14790 c0 -8 9 -31 20 -50 15 -26 18 -29 13 -10 -9 35 -33 78
-33 60z"/>
<path d="M5017 14575 c-45 -16 -42 -13 -61 -50 -18 -34 -7 -55 30 -55 18 0 23
5 21 22 -2 17 5 23 34 31 48 11 100 -3 168 -47 47 -31 81 -38 81 -17 0 4 -16
26 -35 48 -64 75 -151 100 -238 68z"/>
<path d="M5061 14148 c-16 -70 -42 -127 -80 -170 -32 -37 -38 -53 -22 -63 13
-8 78 51 107 97 33 52 49 125 35 161 -16 40 -28 33 -40 -25z"/>
<path d="M5464 13051 c-94 -23 -62 -41 72 -41 169 0 292 -31 522 -131 39 -17
55 -20 64 -11 19 19 -9 42 -107 87 -104 49 -196 80 -279 94 -67 12 -225 13
-272 2z"/>
<path d="M8761 17623 c-12 -13 -12 -17 0 -24 109 -69 153 -92 223 -118 161
-58 198 -62 626 -71 467 -9 560 -21 795 -97 374 -121 679 -437 811 -841 69
-211 112 -504 99 -680 -7 -88 -6 -94 11 -90 23 4 32 57 33 194 3 262 -70 597
-172 801 -181 359 -512 628 -887 722 -176 44 -271 52 -685 61 -344 7 -412 11
-485 28 -98 23 -189 56 -277 101 -71 35 -73 36 -92 14z"/>
<path d="M4880 13764 c56 -17 62 -17 30 1 -14 8 -36 14 -50 14 -18 0 -12 -4
20 -15z"/>
<path d="M5005 13754 l-30 -15 35 7 c79 14 115 9 181 -25 35 -18 57 -27 49
-18 -56 58 -170 82 -235 51z"/>
<path d="M5480 13547 c0 -9 72 -57 85 -57 5 0 1 6 -10 13 -50 35 -75 49 -75
44z"/>
<path d="M4946 13475 c-11 -31 -6 -40 10 -17 9 13 23 21 32 18 37 -10 97 -16
77 -7 -11 4 -41 11 -66 15 -38 6 -48 4 -53 -9z"/>
<path d="M5103 13473 c9 -2 23 -2 30 0 6 3 -1 5 -18 5 -16 0 -22 -2 -12 -5z"/>
<path d="M5422 13425 c20 -7 61 -16 92 -20 41 -5 56 -12 56 -23 0 -12 4 -12
21 4 21 19 20 19 -77 36 -119 20 -141 21 -92 3z"/>
<path d="M4933 13390 c0 -25 2 -35 4 -22 2 12 2 32 0 45 -2 12 -4 2 -4 -23z"/>
<path d="M7359 11923 c-13 -16 -12 -17 4 -4 16 13 21 21 13 21 -2 0 -10 -8
-17 -17z"/>
<path d="M4945 8075 c-27 -7 -68 -14 -90 -15 -22 -1 -31 -5 -21 -7 31 -8 143
7 163 22 21 17 14 17 -52 0z"/>
<path d="M4713 8043 c15 -2 39 -2 55 0 15 2 2 4 -28 4 -30 0 -43 -2 -27 -4z"/>
<path d="M4628 8033 c7 -3 16 -2 19 1 4 3 -2 6 -13 5 -11 0 -14 -3 -6 -6z"/>
<path d="M4476 7990 c-48 -24 -136 -80 -136 -87 0 -3 12 3 28 13 15 10 59 35
97 56 72 38 81 53 11 18z"/>
<path d="M4273 7861 c-54 -38 -80 -61 -53 -46 26 15 110 77 110 81 0 7 -3 5
-57 -35z"/>
<path d="M7160 21105 c-25 -13 -40 -24 -35 -24 6 0 30 11 55 24 25 13 41 24
35 24 -5 0 -30 -11 -55 -24z"/>
<path d="M6608 21023 c12 -2 30 -2 40 0 9 3 -1 5 -23 4 -22 0 -30 -2 -17 -4z"/>
<path d="M4454 16160 c-29 -11 -54 -49 -54 -79 l0 -25 28 27 c29 27 52 35 52
17 0 -5 5 -10 10 -10 6 0 10 18 10 40 0 42 -7 46 -46 30z"/>
<path d="M4624 15854 c7 -76 21 -114 42 -114 18 0 19 -4 -21 105 l-25 70 4
-61z"/>
<path d="M4704 15766 c-7 -19 59 -168 84 -188 26 -22 22 2 -13 88 -42 102 -60
128 -71 100z"/>
<path d="M12202 14690 c-40 -139 -42 -171 -6 -87 16 37 24 72 22 95 l-3 37
-13 -45z"/>
<path d="M12180 14449 c0 -5 5 -7 10 -4 6 3 10 8 10 11 0 2 -4 4 -10 4 -5 0
-10 -5 -10 -11z"/>
<path d="M12217 14433 c-5 -23 10 -51 78 -153 123 -184 184 -316 232 -495 14
-53 18 -104 17 -215 0 -79 1 -139 4 -132 2 6 12 12 22 12 26 0 32 48 19 174
-22 227 -113 453 -276 694 -35 51 -66 104 -69 118 -8 32 -20 31 -27 -3z"/>
<path d="M5025 12951 c69 -34 122 -50 111 -33 -3 6 -37 20 -74 33 -99 32 -103
32 -37 0z"/>
<path d="M12042 12367 c-32 -33 -39 -47 -23 -47 4 0 20 18 35 40 14 22 25 40
23 40 -2 0 -17 -15 -35 -33z"/>
<path d="M5556 12321 c31 -54 130 -156 190 -196 30 -20 57 -35 60 -33 2 3 -20
21 -49 41 -63 44 -104 85 -109 111 -1 10 -27 39 -57 65 -54 46 -54 46 -35 12z"/>
<path d="M5816 12138 c2 -3 24 -19 49 -35 45 -28 59 -53 29 -53 -9 0 -12 -5
-8 -12 4 -7 3 -8 -5 -4 -6 4 -9 11 -6 16 3 5 -9 16 -26 24 -32 16 -32 16 -14
-4 20 -22 9 -26 -28 -9 -19 9 -33 7 -68 -9 -70 -31 -75 -32 -202 -43 -177 -15
-192 -22 -562 -245 -136 -82 -250 -159 -298 -201 -114 -99 -132 -111 -195
-123 -231 -45 -300 -71 -507 -186 -138 -77 -341 -171 -435 -202 -36 -12 -173
-49 -305 -82 -279 -70 -360 -103 -439 -182 -29 -29 -78 -97 -109 -150 -82
-139 -151 -196 -302 -248 -128 -44 -205 -106 -284 -229 -58 -91 -65 -97 -160
-147 -109 -56 -164 -117 -227 -249 -55 -117 -66 -130 -186 -219 -124 -92 -213
-212 -265 -358 -21 -59 -27 -97 -31 -196 -3 -79 0 -132 6 -145 6 -12 15 -38
20 -57 4 -19 12 -34 18 -33 8 2 17 69 38 283 l6 65 -15 -39 c-22 -56 -29 -58
-21 -6 16 108 49 203 97 275 55 85 103 134 211 217 92 69 120 104 154 189 52
129 100 181 220 242 76 38 110 72 169 162 61 95 104 134 200 179 39 19 106 51
150 71 100 48 179 125 252 247 60 98 92 133 174 189 76 51 92 57 339 114 113
26 252 62 310 81 101 32 372 161 583 278 97 53 153 71 353 116 88 20 93 23
206 113 126 100 493 331 641 403 l92 45 150 6 c112 4 152 9 158 20 5 7 13 11
18 8 5 -4 7 -10 4 -15 -7 -11 11 -16 65 -19 27 -1 51 -9 61 -20 18 -19 193
-60 368 -86 106 -16 255 -12 267 6 3 5 14 9 25 9 37 0 9 -19 -39 -26 -26 -4
-41 -9 -34 -12 7 -2 45 4 85 14 68 17 70 18 42 27 -16 5 -57 9 -90 8 -33 0
-94 8 -135 19 -72 19 -73 20 -20 13 73 -9 374 -11 358 -2 -7 3 -62 10 -123 13
-295 19 -512 67 -690 155 -51 25 -91 43 -89 39z m34 -123 c0 -26 -14 -33 -25
-15 -9 14 1 40 15 40 5 0 10 -11 10 -25z m185 -10 c44 -14 62 -23 40 -19 -22
3 -59 12 -82 20 -39 13 -45 13 -59 -1 -17 -17 -49 -21 -39 -5 3 6 13 10 21 10
17 0 19 16 2 24 -23 11 36 -4 117 -29z m112 -31 c-3 -3 -12 -4 -19 -1 -8 3 -5
6 6 6 11 1 17 -2 13 -5z m50 -10 c-3 -3 -12 -4 -19 -1 -8 3 -5 6 6 6 11 1 17
-2 13 -5z m46 -11 c-7 -2 -19 -2 -25 0 -7 3 -2 5 12 5 14 0 19 -2 13 -5z m50
-10 c-7 -2 -19 -2 -25 0 -7 3 -2 5 12 5 14 0 19 -2 13 -5z"/>
<path d="M7145 12068 c-105 -34 -250 -58 -428 -69 -94 -6 -174 -13 -177 -16
-3 -3 83 -3 190 0 210 6 292 20 420 72 99 41 97 47 -5 13z"/>
<path d="M6408 11983 c12 -2 32 -2 45 0 12 2 2 4 -23 4 -25 0 -35 -2 -22 -4z"/>
<path d="M6845 11954 c-16 -8 -55 -25 -85 -39 -30 -14 -44 -22 -30 -19 32 9
168 72 155 73 -5 0 -23 -7 -40 -15z"/>
<path d="M5785 11929 c56 -17 360 -78 466 -93 59 -9 135 -15 170 -15 l64 1
-95 14 c-52 7 -201 33 -330 58 -129 25 -251 46 -270 45 l-35 -1 30 -9z"/>
<path d="M6665 11905 c-25 -12 -26 -14 -5 -9 14 4 29 10 35 15 12 12 5 11 -30
-6z"/>
<path d="M6624 11644 c-18 -14 -18 -15 4 -4 12 6 22 13 22 15 0 8 -5 6 -26
-11z"/>
<path d="M6558 11614 c-16 -8 -28 -17 -28 -19 0 -7 60 17 66 26 8 13 -7 10
-38 -7z"/>
<path d="M6258 11446 c-102 -60 -130 -84 -43 -36 87 49 152 90 140 89 -5 0
-49 -24 -97 -53z"/>
<path d="M9855 10648 c-190 -192 -266 -283 -378 -451 -84 -127 -216 -384 -274
-537 -51 -136 -126 -380 -119 -388 3 -2 8 1 11 9 2 8 20 59 39 115 65 187 156
388 248 544 166 283 278 428 540 696 128 130 165 173 156 182 -7 7 -19 12 -27
12 -8 0 -96 -82 -196 -182z"/>
<path d="M11114 10767 c-452 -267 -930 -702 -1276 -1161 -120 -159 -274 -395
-393 -601 -130 -225 -156 -263 -298 -429 -258 -301 -504 -540 -789 -768 -251
-201 -355 -273 -570 -398 -19 -11 -24 -30 -10 -30 5 0 62 34 126 76 77 50 123
74 134 69 9 -3 64 -15 122 -26 495 -96 1135 -489 1667 -1026 78 -79 179 -189
224 -246 88 -111 120 -145 74 -82 -93 130 -308 368 -465 515 -510 481 -1036
797 -1473 886 -49 10 -86 23 -84 29 2 5 77 68 168 138 90 71 211 169 269 219
156 133 442 420 616 618 191 219 278 291 459 383 173 87 250 148 480 382 220
223 298 291 410 357 207 123 407 192 733 253 50 10 92 21 92 25 0 35 -90 32
-298 -11 -281 -57 -530 -176 -724 -345 -37 -33 -132 -133 -213 -224 -206 -233
-303 -313 -519 -426 -113 -60 -140 -67 -127 -31 14 36 175 300 273 447 374
560 752 932 1376 1354 113 77 144 106 113 106 -4 0 -48 -24 -97 -53z"/>
<path d="M5204 10718 l-19 -23 23 19 c21 18 27 26 19 26 -2 0 -12 -10 -23 -22z"/>
<path d="M11120 10699 c-22 -18 -22 -19 -3 -10 12 6 25 16 28 21 9 15 3 12
-25 -11z"/>
<path d="M10929 10563 c-13 -16 -12 -17 4 -4 16 13 21 21 13 21 -2 0 -10 -8
-17 -17z"/>
<path d="M2292 9893 c-1 -10 -3 -49 -3 -87 0 -38 -4 -65 -7 -60 -4 5 -13 10
-19 12 -21 4 -15 -42 7 -61 12 -10 20 -29 20 -47 0 -49 29 -177 62 -275 45
-134 136 -315 226 -450 130 -194 166 -227 66 -62 -131 218 -231 455 -273 648
-27 128 -38 292 -21 324 11 20 10 28 -4 50 -19 29 -52 33 -54 8z"/>
<path d="M13145 9403 c-371 -155 -724 -210 -1409 -222 -253 -4 -371 -9 -373
-17 -8 -23 520 -32 812 -14 333 21 610 69 839 144 141 46 306 118 306 133 0
13 -22 33 -34 32 -6 -1 -69 -26 -141 -56z"/>
<path d="M13943 8810 c0 -41 2 -58 4 -37 2 20 2 54 0 75 -2 20 -4 3 -4 -38z"/>
<path d="M3845 8746 c-94 -18 -170 -49 -228 -91 -40 -30 -55 -52 -101 -148
-71 -150 -72 -151 -44 -143 56 15 142 18 224 6 89 -13 547 -130 584 -150 20
-11 26 -36 12 -56 -4 -7 -35 -28 -68 -48 -162 -94 -398 -301 -470 -411 -23
-36 -65 -55 -117 -55 -33 0 -54 -7 -84 -29 -37 -27 -114 -123 -163 -204 l-22
-38 33 5 c79 13 99 11 99 -11 0 -21 -151 -266 -189 -306 -43 -47 -79 -61 -158
-61 -64 1 -72 -1 -77 -20 -11 -46 -68 -467 -63 -472 11 -11 131 72 207 142
113 107 207 237 335 463 135 237 130 234 264 201 66 -16 111 -21 165 -18 66 3
80 7 129 41 31 21 85 73 122 115 l66 77 -199 15 c-283 21 -289 31 -124 192 76
74 150 134 248 198 229 153 311 183 532 195 202 10 301 48 412 157 61 59 196
234 237 306 l22 39 -42 -15 c-64 -23 -305 -27 -452 -8 -66 8 -268 42 -450 75
-370 67 -521 80 -640 57z"/>
<path d="M10340 8453 c-252 -15 -546 -63 -765 -124 -99 -27 -184 -63 -174 -74
2 -2 40 7 84 20 602 174 1372 194 2305 59 361 -52 789 -128 1115 -199 21 -4
25 -3 15 3 -20 13 -322 85 -530 127 -482 97 -938 160 -1355 185 -147 9 -565
11 -695 3z"/>
<path d="M6220 8398 c-33 -22 -84 -93 -145 -200 -29 -52 -31 -53 -82 -58 -86
-9 -143 -76 -203 -240 -17 -47 -35 -89 -41 -94 -15 -16 -11 -66 7 -73 8 -3 53
2 100 11 46 10 88 15 93 12 5 -3 -6 -61 -24 -129 -26 -100 -58 -258 -39 -195
3 9 29 88 58 175 29 88 51 164 48 171 -5 17 -47 15 -127 -8 -44 -13 -73 -16
-79 -10 -25 25 79 277 135 324 22 19 42 26 72 26 23 0 47 4 53 8 7 4 35 47 64
96 29 48 68 106 87 127 42 46 55 47 235 24 64 -9 169 -19 233 -24 141 -11 159
-21 127 -73 -24 -39 -88 -89 -191 -150 -41 -24 -74 -48 -74 -53 -1 -17 53 -23
158 -17 85 4 102 2 114 -12 32 -38 -32 -159 -132 -252 l-61 -57 -134 6 c-73 3
-143 2 -156 -3 -81 -30 -217 -266 -277 -480 -9 -36 -16 -67 -14 -69 3 -2 7 2
9 10 3 8 18 55 35 106 48 146 143 323 207 387 l29 29 100 -7 c55 -3 103 -10
108 -15 4 -4 -15 -51 -42 -103 -28 -52 -51 -101 -51 -109 0 -8 16 15 36 51 49
87 91 139 119 146 30 8 98 -28 124 -65 46 -64 84 -50 202 79 91 100 115 118
132 101 10 -10 -6 -79 -38 -166 -4 -11 12 13 34 53 43 77 50 116 27 147 -13
18 -16 18 -42 5 -15 -8 -61 -53 -101 -100 -78 -89 -139 -143 -159 -138 -6 2
-35 31 -63 66 l-53 63 64 68 c143 151 181 297 80 302 -42 2 -114 -1 -144 -7
-45 -9 -32 8 42 55 93 59 137 97 155 132 14 26 14 32 1 58 -9 16 -23 32 -33
35 -9 4 -91 13 -181 21 -90 8 -191 19 -225 25 -97 16 -140 13 -177 -12z"/>
<path d="M6227 8318 c-13 -18 -41 -64 -62 -103 -67 -123 -76 -132 -145 -140
-53 -6 -64 -11 -90 -43 -28 -34 -100 -196 -100 -225 0 -11 11 -11 66 0 82 17
118 5 122 -42 3 -41 -88 -400 -126 -500 -34 -85 -53 -111 -275 -372 -204 -238
-256 -332 -265 -480 -4 -75 -2 -88 22 -135 45 -90 105 -144 195 -173 51 -17
54 -17 76 1 96 78 277 210 422 308 192 130 173 105 193 261 8 66 14 84 36 103
14 12 35 22 48 22 38 0 122 49 168 98 65 69 93 123 129 247 47 166 128 310
192 344 41 22 41 8 0 -36 -21 -23 -47 -56 -57 -75 -24 -42 -10 -28 38 40 21
28 42 52 47 52 14 0 11 -11 -8 -33 -10 -11 -12 -17 -5 -13 16 10 15 -5 -3 -30
-19 -28 -101 -230 -108 -269 -5 -23 -4 -25 3 -10 18 41 84 193 120 280 21 50
52 115 69 146 30 55 81 180 81 199 0 6 -27 -21 -61 -60 -128 -150 -211 -187
-267 -122 -57 67 -65 73 -91 70 -20 -2 -34 -18 -63 -68 -47 -80 -54 -116 -35
-162 12 -27 24 -39 54 -48 56 -18 83 -47 83 -88 0 -95 -59 -182 -136 -201 -65
-16 -102 -2 -142 54 -17 25 -36 45 -42 45 -27 0 -51 -78 -85 -274 -4 -25 -19
-52 -40 -73 -60 -60 -140 -41 -184 44 -31 60 2 365 55 515 60 169 154 329 217
369 30 19 42 20 165 14 124 -6 135 -5 167 15 48 30 128 121 154 174 36 78 36
78 -84 70 -116 -7 -155 2 -173 41 -15 32 -4 42 104 108 49 31 110 74 135 96
41 38 43 40 19 41 -59 1 -273 22 -368 35 -137 20 -137 20 -165 -17z"/>
<path d="M6750 8145 c-19 -14 -30 -25 -25 -25 6 0 24 11 40 25 39 31 30 31
-15 0z"/>
<path d="M7835 8048 c-27 -32 -65 -128 -65 -161 1 -14 15 6 40 55 22 42 45 80
52 84 18 12 358 14 358 2 0 -5 -78 -87 -174 -181 -188 -185 -231 -243 -291
-385 -20 -48 -45 -96 -56 -108 -17 -19 -84 -53 -131 -68 -20 -6 -25 -26 -6
-26 19 0 132 67 154 92 12 12 31 50 43 82 55 149 156 278 352 449 77 67 142
131 145 144 12 47 10 48 -201 48 l-197 0 -23 -27z"/>
<path d="M7541 8003 c-113 -68 -223 -199 -556 -664 -60 -85 -132 -178 -159
-206 -27 -29 -44 -53 -39 -53 19 0 90 85 239 287 81 109 185 248 230 309 190
257 328 360 416 313 29 -16 48 -70 48 -139 0 -57 13 -81 23 -42 16 57 16 79 2
127 -18 64 -61 105 -108 105 -19 0 -58 -15 -96 -37z"/>
<path d="M3550 7991 c-59 -42 -157 -54 -211 -25 -17 8 -32 14 -33 12 -2 -2
-24 -85 -49 -186 -42 -163 -45 -185 -33 -205 8 -12 17 -37 21 -56 l7 -33 60
58 c64 64 147 182 197 282 35 69 73 163 69 167 -2 2 -14 -5 -28 -14z"/>
<path d="M5020 7969 l-45 -41 42 32 c37 27 61 51 51 50 -2 0 -23 -19 -48 -41z"/>
<path d="M7871 7984 c-5 -12 -21 -70 -36 -130 -15 -59 -33 -120 -40 -135 -23
-43 -63 -51 -95 -19 -18 18 -19 29 -13 123 5 98 5 105 -16 126 -29 29 -58 26
-116 -10 -62 -39 -134 -115 -232 -243 -91 -118 -214 -298 -209 -304 2 -2 33
20 68 48 91 74 157 103 232 104 78 1 126 -26 156 -90 18 -36 21 -55 16 -95 -4
-27 -3 -49 1 -49 4 0 31 14 59 32 50 30 54 35 83 117 61 169 134 267 323 437
65 58 118 106 118 107 0 1 -65 2 -145 2 -137 0 -145 -1 -154 -21z"/>
<path d="M4900 7890 c-19 -11 -31 -19 -27 -20 11 0 67 29 67 35 0 7 -1 7 -40
-15z"/>
<path d="M4778 7843 c7 -3 16 -2 19 1 4 3 -2 6 -13 5 -11 0 -14 -3 -6 -6z"/>
<path d="M4708 7833 c6 -2 18 -2 25 0 6 3 1 5 -13 5 -14 0 -19 -2 -12 -5z"/>
<path d="M4535 7812 c-44 -8 -75 -16 -70 -18 6 -2 57 5 115 15 58 11 89 19 70
19 -19 0 -71 -7 -115 -16z"/>
<path d="M4382 7773 c-24 -8 -41 -17 -39 -19 2 -2 28 5 58 15 30 11 47 20 39
19 -8 0 -34 -6 -58 -15z"/>
<path d="M4988 7761 c-37 -10 -101 -35 -143 -55 -73 -34 -77 -35 -101 -19 -21
13 -31 14 -62 5 -85 -26 -255 -151 -332 -244 l-43 -53 69 66 c96 92 166 145
247 185 63 32 71 34 103 22 26 -9 41 -9 62 -1 15 6 55 23 89 37 113 48 230 58
373 32 196 -36 334 -122 410 -256 34 -61 31 -31 -5 40 -52 103 -204 204 -366
244 -85 21 -216 20 -301 -3z"/>
<path d="M4300 7740 c-8 -5 -10 -10 -5 -10 6 0 17 5 25 10 8 5 11 10 5 10 -5
0 -17 -5 -25 -10z"/>
<path d="M4187 7683 c-49 -26 -84 -49 -78 -51 6 -2 23 5 38 16 16 11 52 31 81
46 28 14 52 29 52 31 0 7 2 8 -93 -42z"/>
<path d="M5045 7709 c-127 -12 -229 -63 -322 -162 -85 -91 -123 -171 -123
-256 1 -93 22 -134 116 -217 154 -135 172 -165 138 -224 -71 -120 -319 -51
-370 103 -10 29 -18 85 -18 127 l-1 76 -26 -41 c-60 -94 -252 -235 -299 -220
-11 3 -23 17 -26 31 -5 21 7 36 87 112 76 71 112 116 197 247 58 88 132 196
165 240 33 44 52 73 41 64 -10 -9 -67 -55 -126 -103 -131 -106 -175 -161 -240
-296 -80 -168 -87 -174 -260 -229 -115 -37 -171 -72 -272 -170 -90 -87 -159
-180 -181 -241 -15 -41 -14 -45 10 -86 31 -53 43 -60 127 -74 131 -23 264 14
393 110 101 75 118 84 148 76 17 -4 33 -24 57 -72 100 -204 319 -297 549 -234
106 30 164 63 235 133 79 79 122 143 158 230 46 113 31 230 -39 307 -50 56
-81 73 -233 125 -144 49 -175 69 -189 123 -22 76 33 144 127 158 59 9 197 -10
265 -37 108 -43 210 -126 263 -215 17 -28 60 -9 123 54 74 75 111 148 111 222
0 207 -276 367 -585 339z"/>
<path d="M5865 7710 l-30 -8 30 0 c17 0 39 3 50 8 l20 9 -20 -1 c-11 0 -33 -4
-50 -8z"/>
<path d="M5808 7693 c7 -3 16 -2 19 1 4 3 -2 6 -13 5 -11 0 -14 -3 -6 -6z"/>
<path d="M4639 7577 c-65 -76 -123 -161 -204 -297 -67 -113 -97 -152 -184
-239 -57 -57 -90 -95 -74 -83 75 53 182 183 276 335 54 86 130 196 168 242 69
86 85 121 18 42z"/>
<path d="M6937 7508 c-27 -49 -46 -92 -44 -94 2 -3 26 36 52 86 26 51 45 93
43 95 -1 2 -25 -37 -51 -87z"/>
<path d="M4643 7523 c-42 -50 -73 -103 -73 -124 0 -7 16 14 36 47 19 32 47 74
60 92 37 48 23 39 -23 -15z"/>
<path d="M7335 7509 c-70 -29 -163 -98 -229 -170 -84 -93 -68 -90 27 4 89 90
174 141 251 152 85 13 154 -48 166 -145 l6 -45 9 50 c7 44 5 56 -17 94 -43 79
-116 99 -213 60z"/>
<path d="M4279 7463 c-13 -16 -12 -17 4 -4 9 7 17 15 17 17 0 8 -8 3 -21 -13z"/>
<path d="M10086 7461 c-3 -5 25 -9 62 -10 375 -6 759 -34 1477 -107 252 -25
607 -30 763 -10 187 24 461 93 435 109 -6 4 -69 -9 -140 -28 -231 -64 -285
-70 -608 -69 -197 0 -341 6 -450 17 -306 33 -791 77 -1005 92 -237 16 -526 20
-534 6z"/>
<path d="M4215 7389 c-109 -113 -188 -135 -357 -101 -122 25 -144 27 -154 10
-4 -6 -3 -8 4 -4 6 3 53 -3 104 -15 117 -26 233 -23 293 8 34 18 169 143 154
143 -3 0 -23 -18 -44 -41z"/>
<path d="M6445 7421 c-18 -30 27 -91 90 -123 54 -28 57 -35 33 -81 -50 -98
-108 -114 -173 -47 -21 21 -51 42 -66 45 -33 8 -84 -16 -100 -47 -11 -20 -9
-20 20 5 48 40 86 36 138 -15 35 -34 49 -42 78 -41 51 1 83 27 111 86 37 80
34 93 -33 125 -46 21 -60 34 -68 59 -13 39 -21 48 -30 34z"/>
<path d="M3258 7383 c7 -3 16 -2 19 1 4 3 -2 6 -13 5 -11 0 -14 -3 -6 -6z"/>
<path d="M4269 7353 l-24 -28 28 24 c25 23 32 31 24 31 -2 0 -14 -12 -28 -27z"/>
<path d="M3391 7359 c-68 -13 -73 -19 -11 -12 79 9 79 8 86 16 9 9 -18 7 -75
-4z"/>
<path d="M5846 7335 c-9 -26 -7 -32 5 -12 6 10 9 21 6 23 -2 3 -7 -2 -11 -11z"/>
<path d="M4830 7308 c-25 -13 -52 -35 -60 -50 -13 -25 -13 -31 0 -55 24 -41
56 -60 190 -106 69 -24 140 -51 157 -61 49 -25 103 -75 135 -125 37 -59 36
-40 -1 25 -53 92 -120 136 -293 193 -53 18 -117 46 -142 62 -41 28 -44 32 -34
54 19 42 70 58 160 50 195 -17 331 -89 396 -210 21 -39 33 -51 54 -53 33 -4
117 39 150 76 21 24 20 24 -12 -2 -41 -34 -90 -56 -124 -56 -19 0 -29 10 -46
45 -78 162 -386 285 -530 213z"/>
<path d="M4217 7288 c-14 -18 -35 -53 -47 -78 -13 -25 -38 -70 -57 -100 -19
-30 -28 -48 -20 -40 16 15 158 250 151 250 -1 0 -14 -15 -27 -32z"/>
<path d="M7507 7269 c-14 -30 -36 -49 -100 -88 -143 -85 -140 -84 -199 -66
-68 20 -97 40 -113 78 l-14 32 -1 -31 c0 -38 22 -59 86 -83 27 -10 49 -23 51
-27 1 -5 -57 -42 -130 -83 -73 -41 -214 -124 -315 -184 -100 -60 -185 -107
-188 -104 -3 3 10 17 29 31 46 35 373 230 470 281 42 22 77 42 76 45 0 3 -22
16 -50 28 -65 31 -83 66 -76 144 3 32 4 58 2 58 -2 0 -40 -49 -85 -110 -45
-60 -95 -121 -111 -134 -36 -30 -85 -42 -105 -25 -18 15 -15 18 -48 -66 -15
-38 -44 -99 -64 -135 -20 -36 -43 -78 -50 -95 -7 -16 -29 -45 -50 -63 l-37
-32 55 31 c30 17 150 86 265 153 116 67 291 167 390 221 99 54 208 116 243
138 60 37 97 83 90 112 -2 7 -11 -5 -21 -26z"/>
<path d="M5807 7245 c-15 -30 -25 -55 -22 -55 7 0 57 101 53 106 -2 2 -16 -21
-31 -51z"/>
<path d="M3348 7283 c7 -3 16 -2 19 1 4 3 -2 6 -13 5 -11 0 -14 -3 -6 -6z"/>
<path d="M4564 7227 c6 -71 27 -101 129 -188 40 -33 89 -80 109 -102 22 -25
38 -36 38 -27 0 8 -49 62 -109 120 -107 103 -131 135 -158 215 l-13 40 4 -58z"/>
<path d="M4150 7250 c-14 -10 -22 -22 -18 -25 9 -9 26 2 38 26 13 23 11 23
-20 -1z"/>
<path d="M5744 7143 c-15 -20 -23 -33 -16 -29 13 8 56 66 49 66 -3 0 -17 -17
-33 -37z"/>
<path d="M6661 7139 c-6 -18 -11 -37 -10 -43 0 -6 7 7 15 28 8 22 12 41 10 43
-2 2 -9 -10 -15 -28z"/>
<path d="M3590 7130 c-6 -11 -8 -20 -6 -20 3 0 10 9 16 20 6 11 8 20 6 20 -3
0 -10 -9 -16 -20z"/>
<path d="M3080 7087 c0 -19 32 -27 95 -26 l50 1 -53 9 c-29 5 -62 14 -73 19
-15 8 -19 7 -19 -3z"/>
<path d="M3560 7080 c-6 -11 -8 -20 -6 -20 3 0 10 9 16 20 6 11 8 20 6 20 -3
0 -10 -9 -16 -20z"/>
<path d="M4560 7091 c0 -6 4 -13 10 -16 6 -3 7 1 4 9 -7 18 -14 21 -14 7z"/>
<path d="M5613 6988 c-96 -110 -193 -228 -161 -198 8 8 58 64 109 124 52 60
109 127 127 148 19 21 31 38 29 38 -3 0 -50 -51 -104 -112z"/>
<path d="M6720 7070 c0 -11 4 -20 9 -20 5 0 7 9 4 20 -3 11 -7 20 -9 20 -2 0
-4 -9 -4 -20z"/>
<path d="M6616 7005 c-9 -26 -7 -32 5 -12 6 10 9 21 6 23 -2 3 -7 -2 -11 -11z"/>
<path d="M4550 6969 c0 -28 43 -81 82 -101 44 -23 98 -33 132 -24 35 9 33 27
-2 20 -63 -13 -157 31 -193 90 -11 18 -19 24 -19 15z"/>
<path d="M3770 6929 l-35 -30 38 26 c33 24 43 35 34 35 -1 0 -18 -14 -37 -31z"/>
<path d="M6570 6916 c-41 -67 -128 -127 -203 -141 -20 -4 -42 -14 -49 -23 -11
-14 -10 -15 7 -8 11 4 39 14 62 21 87 27 161 86 202 163 18 35 5 26 -19 -12z"/>
<path d="M3670 6843 l-55 -58 58 55 c31 30 57 56 57 57 0 8 -10 -1 -60 -54z"/>
<path d="M6060 6876 c0 -34 68 -49 78 -18 3 11 0 12 -17 3 -17 -9 -24 -8 -41
9 -14 14 -20 16 -20 6z"/>
<path d="M5419 6753 c-13 -16 -12 -17 4 -4 9 7 17 15 17 17 0 8 -8 3 -21 -13z"/>
<path d="M6454 6624 c-18 -14 -18 -15 4 -4 12 6 22 13 22 15 0 8 -5 6 -26 -11z"/>
<path d="M6377 6584 c-26 -14 -52 -22 -57 -19 -6 3 -10 -1 -10 -9 0 -9 3 -16
8 -16 10 0 112 59 112 65 0 7 1 7 -53 -21z"/>
<path d="M4171 6546 c-10 -12 -9 -13 7 -9 16 4 27 -8 57 -65 49 -95 129 -173
223 -219 69 -35 84 -38 177 -41 56 -2 126 1 156 7 54 11 179 64 179 76 0 3
-17 -3 -38 -14 -98 -50 -257 -65 -381 -36 -138 33 -250 122 -313 249 -33 67
-46 77 -67 52z"/>
<path d="M3025 6479 c-22 -10 -34 -19 -27 -19 15 0 72 28 72 35 0 6 3 7 -45
-16z"/>
<path d="M3491 6453 c-2 -68 129 -121 269 -110 67 6 207 43 197 53 -2 2 -24
-3 -48 -12 -56 -22 -225 -25 -291 -5 -49 14 -80 37 -110 81 l-17 25 0 -32z"/>
<path d="M4989 6313 c-13 -16 -12 -17 4 -4 9 7 17 15 17 17 0 8 -8 3 -21 -13z"/>
<path d="M5376 6201 c33 -58 101 -110 176 -132 37 -12 76 -18 86 -14 12 5 1
11 -38 21 -86 23 -156 61 -201 112 -36 41 -40 42 -23 13z"/>
<path d="M2925 6139 c-7 -11 49 -36 197 -90 175 -63 357 -103 583 -129 122
-14 1278 -23 1545 -12 l215 9 -200 2 c-110 2 -506 6 -880 11 -717 8 -720 8
-984 61 -106 21 -281 77 -403 129 -39 17 -70 25 -73 19z"/>
<path d="M5520 5973 l-45 -47 53 43 c28 24 52 45 52 47 0 13 -21 -2 -60 -43z"/>
<path d="M10260 5956 c0 -2 8 -10 18 -17 15 -13 16 -12 3 4 -13 16 -21 21 -21
13z"/>
<path d="M6405 5909 c1325 -11 3773 -10 3780 1 4 7 -759 9 -2282 8 -1665 -1
-2073 -4 -1498 -9z"/>
<path d="M3141 5835 c7 -6 276 -82 321 -90 20 -4 45 -13 55 -21 16 -12 13 -14
-29 -15 -64 -2 -68 -3 -68 -11 0 -5 0 -12 0 -16 0 -4 8 -8 18 -9 9 0 37 -4 62
-8 25 -4 176 -10 335 -14 424 -11 7751 -12 7930 -1 191 11 268 36 170 54 -47
9 -37 22 28 35 60 13 205 59 227 72 16 9 -33 3 -85 -11 -61 -17 -214 -40 -354
-55 -125 -13 -640 -15 -4030 -15 -2605 0 -3926 4 -4006 11 -169 14 -300 35
-441 69 -124 30 -141 34 -133 25z"/>
</g>
</svg>
